<mxfile host="app.diagrams.net" modified="2024-05-17T02:31:55.165Z" agent="Mozilla/5.0 (Windows NT 10.0; Win64; x64) AppleWebKit/537.36 (KHTML, like Gecko) Chrome/124.0.0.0 Safari/537.36" etag="lEACsreKZP3pnzH2vgo3" version="24.4.3" type="device">
  <diagram name="PÃ¡gina-1" id="z_yrlxbVFpKRpX85cw53">
    <mxGraphModel dx="712" dy="401" grid="1" gridSize="10" guides="1" tooltips="1" connect="1" arrows="1" fold="1" page="1" pageScale="1" pageWidth="827" pageHeight="1169" math="0" shadow="0">
      <root>
        <mxCell id="0" />
        <mxCell id="1" parent="0" />
        <mxCell id="9ni6siHGz9n0_JyOoFfe-1" value="" style="endArrow=none;html=1;rounded=0;" edge="1" parent="1">
          <mxGeometry width="50" height="50" relative="1" as="geometry">
            <mxPoint x="80" y="200" as="sourcePoint" />
            <mxPoint x="480" y="200" as="targetPoint" />
          </mxGeometry>
        </mxCell>
        <mxCell id="9ni6siHGz9n0_JyOoFfe-2" value="" style="endArrow=none;html=1;rounded=0;" edge="1" parent="1" source="9ni6siHGz9n0_JyOoFfe-10">
          <mxGeometry width="50" height="50" relative="1" as="geometry">
            <mxPoint x="80" y="280" as="sourcePoint" />
            <mxPoint x="520" y="280" as="targetPoint" />
          </mxGeometry>
        </mxCell>
        <mxCell id="9ni6siHGz9n0_JyOoFfe-4" value="" style="endArrow=none;dashed=1;html=1;rounded=0;" edge="1" parent="1">
          <mxGeometry width="50" height="50" relative="1" as="geometry">
            <mxPoint x="160" y="320" as="sourcePoint" />
            <mxPoint x="160" y="200" as="targetPoint" />
          </mxGeometry>
        </mxCell>
        <mxCell id="9ni6siHGz9n0_JyOoFfe-5" value="" style="endArrow=none;dashed=1;html=1;rounded=0;" edge="1" parent="1">
          <mxGeometry width="50" height="50" relative="1" as="geometry">
            <mxPoint x="200" y="320" as="sourcePoint" />
            <mxPoint x="200" y="200" as="targetPoint" />
          </mxGeometry>
        </mxCell>
        <mxCell id="9ni6siHGz9n0_JyOoFfe-6" value="" style="endArrow=none;dashed=1;html=1;rounded=0;" edge="1" parent="1">
          <mxGeometry width="50" height="50" relative="1" as="geometry">
            <mxPoint x="280" y="320" as="sourcePoint" />
            <mxPoint x="280" y="200" as="targetPoint" />
          </mxGeometry>
        </mxCell>
        <mxCell id="9ni6siHGz9n0_JyOoFfe-7" value="" style="endArrow=none;dashed=1;html=1;rounded=0;" edge="1" parent="1">
          <mxGeometry width="50" height="50" relative="1" as="geometry">
            <mxPoint x="360" y="320" as="sourcePoint" />
            <mxPoint x="360" y="200" as="targetPoint" />
          </mxGeometry>
        </mxCell>
        <mxCell id="9ni6siHGz9n0_JyOoFfe-9" value="" style="rounded=0;whiteSpace=wrap;html=1;" vertex="1" parent="1">
          <mxGeometry x="160" y="190" width="120" height="20" as="geometry" />
        </mxCell>
        <mxCell id="9ni6siHGz9n0_JyOoFfe-11" value="" style="endArrow=none;html=1;rounded=0;" edge="1" parent="1" source="9ni6siHGz9n0_JyOoFfe-22" target="9ni6siHGz9n0_JyOoFfe-10">
          <mxGeometry width="50" height="50" relative="1" as="geometry">
            <mxPoint x="80" y="280" as="sourcePoint" />
            <mxPoint x="440" y="280" as="targetPoint" />
          </mxGeometry>
        </mxCell>
        <mxCell id="9ni6siHGz9n0_JyOoFfe-10" value="" style="rounded=0;whiteSpace=wrap;html=1;" vertex="1" parent="1">
          <mxGeometry x="280" y="270" width="80" height="20" as="geometry" />
        </mxCell>
        <mxCell id="9ni6siHGz9n0_JyOoFfe-12" value="Comensal 1" style="text;html=1;align=center;verticalAlign=middle;whiteSpace=wrap;rounded=0;" vertex="1" parent="1">
          <mxGeometry y="180" width="80" height="30" as="geometry" />
        </mxCell>
        <mxCell id="9ni6siHGz9n0_JyOoFfe-13" value="Comensal 2" style="text;html=1;align=center;verticalAlign=middle;whiteSpace=wrap;rounded=0;" vertex="1" parent="1">
          <mxGeometry y="260" width="80" height="30" as="geometry" />
        </mxCell>
        <mxCell id="9ni6siHGz9n0_JyOoFfe-14" value="Entra comensal 1" style="text;html=1;align=center;verticalAlign=middle;whiteSpace=wrap;rounded=0;" vertex="1" parent="1">
          <mxGeometry x="120" y="140" width="80" height="30" as="geometry" />
        </mxCell>
        <mxCell id="9ni6siHGz9n0_JyOoFfe-15" value="Comensal 2 intenta entrar" style="text;html=1;align=center;verticalAlign=middle;whiteSpace=wrap;rounded=0;" vertex="1" parent="1">
          <mxGeometry x="200" y="230" width="80" height="30" as="geometry" />
        </mxCell>
        <mxCell id="9ni6siHGz9n0_JyOoFfe-17" value="Entra comensal 2" style="text;html=1;align=center;verticalAlign=middle;whiteSpace=wrap;rounded=0;" vertex="1" parent="1">
          <mxGeometry x="280" y="215" width="80" height="30" as="geometry" />
        </mxCell>
        <mxCell id="9ni6siHGz9n0_JyOoFfe-18" value="Sale comensal 1" style="text;html=1;align=center;verticalAlign=middle;whiteSpace=wrap;rounded=0;" vertex="1" parent="1">
          <mxGeometry x="290" y="130" width="80" height="60" as="geometry" />
        </mxCell>
        <mxCell id="9ni6siHGz9n0_JyOoFfe-19" value="Sale comensal 2" style="text;html=1;align=center;verticalAlign=middle;whiteSpace=wrap;rounded=0;" vertex="1" parent="1">
          <mxGeometry x="370" y="215" width="80" height="60" as="geometry" />
        </mxCell>
        <mxCell id="9ni6siHGz9n0_JyOoFfe-20" value="2 Se bloquea" style="text;html=1;align=center;verticalAlign=middle;whiteSpace=wrap;rounded=0;" vertex="1" parent="1">
          <mxGeometry x="200" y="290" width="80" height="30" as="geometry" />
        </mxCell>
        <mxCell id="9ni6siHGz9n0_JyOoFfe-23" value="" style="endArrow=none;html=1;rounded=0;" edge="1" parent="1">
          <mxGeometry width="50" height="50" relative="1" as="geometry">
            <mxPoint x="80" y="280" as="sourcePoint" />
            <mxPoint x="200" y="280" as="targetPoint" />
          </mxGeometry>
        </mxCell>
        <mxCell id="9ni6siHGz9n0_JyOoFfe-22" value="" style="shape=curlyBracket;whiteSpace=wrap;html=1;rounded=1;labelPosition=left;verticalLabelPosition=middle;align=right;verticalAlign=middle;size=0.5;rotation=-90;" vertex="1" parent="1">
          <mxGeometry x="230" y="250" width="20" height="80" as="geometry" />
        </mxCell>
        <mxCell id="9ni6siHGz9n0_JyOoFfe-24" value="" style="endArrow=none;dashed=1;html=1;dashPattern=1 3;strokeWidth=2;rounded=0;exitX=0.948;exitY=0.021;exitDx=0;exitDy=0;exitPerimeter=0;entryX=0;entryY=0.5;entryDx=0;entryDy=0;" edge="1" parent="1" source="9ni6siHGz9n0_JyOoFfe-22" target="9ni6siHGz9n0_JyOoFfe-10">
          <mxGeometry width="50" height="50" relative="1" as="geometry">
            <mxPoint x="260" y="280" as="sourcePoint" />
            <mxPoint x="310" y="230" as="targetPoint" />
          </mxGeometry>
        </mxCell>
        <mxCell id="9ni6siHGz9n0_JyOoFfe-26" value="" style="endArrow=classic;html=1;rounded=0;entryX=1;entryY=0.5;entryDx=0;entryDy=0;" edge="1" parent="1" target="9ni6siHGz9n0_JyOoFfe-10">
          <mxGeometry width="50" height="50" relative="1" as="geometry">
            <mxPoint x="380" y="260" as="sourcePoint" />
            <mxPoint x="350" y="290" as="targetPoint" />
          </mxGeometry>
        </mxCell>
        <mxCell id="9ni6siHGz9n0_JyOoFfe-27" value="" style="endArrow=classic;html=1;rounded=0;entryX=1;entryY=0.5;entryDx=0;entryDy=0;" edge="1" parent="1">
          <mxGeometry width="50" height="50" relative="1" as="geometry">
            <mxPoint x="300" y="250" as="sourcePoint" />
            <mxPoint x="280" y="270" as="targetPoint" />
          </mxGeometry>
        </mxCell>
        <mxCell id="9ni6siHGz9n0_JyOoFfe-28" value="" style="endArrow=classic;html=1;rounded=0;entryX=1;entryY=0.5;entryDx=0;entryDy=0;" edge="1" parent="1">
          <mxGeometry width="50" height="50" relative="1" as="geometry">
            <mxPoint x="220" y="260" as="sourcePoint" />
            <mxPoint x="200" y="280" as="targetPoint" />
          </mxGeometry>
        </mxCell>
        <mxCell id="9ni6siHGz9n0_JyOoFfe-29" value="" style="endArrow=classic;html=1;rounded=0;entryX=1;entryY=0.5;entryDx=0;entryDy=0;" edge="1" parent="1">
          <mxGeometry width="50" height="50" relative="1" as="geometry">
            <mxPoint x="300" y="180" as="sourcePoint" />
            <mxPoint x="280" y="200" as="targetPoint" />
          </mxGeometry>
        </mxCell>
        <mxCell id="9ni6siHGz9n0_JyOoFfe-30" value="" style="endArrow=classic;html=1;rounded=0;" edge="1" parent="1">
          <mxGeometry width="50" height="50" relative="1" as="geometry">
            <mxPoint x="230" y="140" as="sourcePoint" />
            <mxPoint x="230" y="180" as="targetPoint" />
            <Array as="points">
              <mxPoint x="230" y="170" />
            </Array>
          </mxGeometry>
        </mxCell>
        <mxCell id="9ni6siHGz9n0_JyOoFfe-31" value="" style="endArrow=classic;html=1;rounded=0;entryX=1;entryY=0.5;entryDx=0;entryDy=0;" edge="1" parent="1">
          <mxGeometry width="50" height="50" relative="1" as="geometry">
            <mxPoint x="180" y="170" as="sourcePoint" />
            <mxPoint x="160" y="190" as="targetPoint" />
          </mxGeometry>
        </mxCell>
        <mxCell id="9ni6siHGz9n0_JyOoFfe-32" value="Comensal 1 se come una hamburgue&lt;span style=&quot;color: rgba(0, 0, 0, 0); font-family: monospace; font-size: 0px; text-align: start; text-wrap: nowrap;&quot;&gt;%3CmxGraphModel%3E%3Croot%3E%3CmxCell%20id%3D%220%22%2F%3E%3CmxCell%20id%3D%221%22%20parent%3D%220%22%2F%3E%3CmxCell%20id%3D%222%22%20value%3D%22T2%22%20style%3D%22text%3Bhtml%3D1%3Balign%3Dcenter%3BverticalAlign%3Dmiddle%3BwhiteSpace%3Dwrap%3Brounded%3D0%3B%22%20vertex%3D%221%22%20parent%3D%221%22%3E%3CmxGeometry%20x%3D%22160%22%20y%3D%22320%22%20width%3D%2280%22%20height%3D%2230%22%20as%3D%22geometry%22%2F%3E%3C%2FmxCell%3E%3C%2Froot%3E%3C%2FmxGraphModel%3E&lt;/span&gt;sa (1/8)" style="text;html=1;align=center;verticalAlign=middle;whiteSpace=wrap;rounded=0;" vertex="1" parent="1">
          <mxGeometry x="190" y="95" width="80" height="30" as="geometry" />
        </mxCell>
        <mxCell id="9ni6siHGz9n0_JyOoFfe-33" value="T1" style="text;html=1;align=center;verticalAlign=middle;whiteSpace=wrap;rounded=0;" vertex="1" parent="1">
          <mxGeometry x="120" y="320" width="80" height="30" as="geometry" />
        </mxCell>
        <mxCell id="9ni6siHGz9n0_JyOoFfe-34" value="T2" style="text;html=1;align=center;verticalAlign=middle;whiteSpace=wrap;rounded=0;" vertex="1" parent="1">
          <mxGeometry x="160" y="320" width="80" height="30" as="geometry" />
        </mxCell>
        <mxCell id="9ni6siHGz9n0_JyOoFfe-35" value="T3" style="text;html=1;align=center;verticalAlign=middle;whiteSpace=wrap;rounded=0;" vertex="1" parent="1">
          <mxGeometry x="240" y="320" width="80" height="30" as="geometry" />
        </mxCell>
        <mxCell id="9ni6siHGz9n0_JyOoFfe-36" value="T4" style="text;html=1;align=center;verticalAlign=middle;whiteSpace=wrap;rounded=0;" vertex="1" parent="1">
          <mxGeometry x="320" y="320" width="80" height="30" as="geometry" />
        </mxCell>
        <mxCell id="9ni6siHGz9n0_JyOoFfe-39" value="" style="endArrow=classic;html=1;rounded=0;exitX=0;exitY=1;exitDx=0;exitDy=0;" edge="1" parent="1" source="9ni6siHGz9n0_JyOoFfe-36">
          <mxGeometry width="50" height="50" relative="1" as="geometry">
            <mxPoint x="330" y="290" as="sourcePoint" />
            <mxPoint x="320" y="300" as="targetPoint" />
          </mxGeometry>
        </mxCell>
        <mxCell id="9ni6siHGz9n0_JyOoFfe-94" value="" style="endArrow=none;html=1;rounded=0;" edge="1" parent="1" source="9ni6siHGz9n0_JyOoFfe-101">
          <mxGeometry width="50" height="50" relative="1" as="geometry">
            <mxPoint x="401" y="280" as="sourcePoint" />
            <mxPoint x="780" y="280" as="targetPoint" />
          </mxGeometry>
        </mxCell>
        <mxCell id="9ni6siHGz9n0_JyOoFfe-95" value="" style="endArrow=none;dashed=1;html=1;rounded=0;" edge="1" parent="1">
          <mxGeometry width="50" height="50" relative="1" as="geometry">
            <mxPoint x="481" y="320" as="sourcePoint" />
            <mxPoint x="481" y="200" as="targetPoint" />
          </mxGeometry>
        </mxCell>
        <mxCell id="9ni6siHGz9n0_JyOoFfe-96" value="" style="endArrow=none;dashed=1;html=1;rounded=0;" edge="1" parent="1">
          <mxGeometry width="50" height="50" relative="1" as="geometry">
            <mxPoint x="521" y="320" as="sourcePoint" />
            <mxPoint x="521" y="200" as="targetPoint" />
          </mxGeometry>
        </mxCell>
        <mxCell id="9ni6siHGz9n0_JyOoFfe-97" value="" style="endArrow=none;dashed=1;html=1;rounded=0;" edge="1" parent="1">
          <mxGeometry width="50" height="50" relative="1" as="geometry">
            <mxPoint x="601" y="320" as="sourcePoint" />
            <mxPoint x="601" y="200" as="targetPoint" />
          </mxGeometry>
        </mxCell>
        <mxCell id="9ni6siHGz9n0_JyOoFfe-98" value="" style="endArrow=none;dashed=1;html=1;rounded=0;" edge="1" parent="1">
          <mxGeometry width="50" height="50" relative="1" as="geometry">
            <mxPoint x="681" y="320" as="sourcePoint" />
            <mxPoint x="681" y="200" as="targetPoint" />
          </mxGeometry>
        </mxCell>
        <mxCell id="9ni6siHGz9n0_JyOoFfe-99" value="" style="rounded=0;whiteSpace=wrap;html=1;" vertex="1" parent="1">
          <mxGeometry x="481" y="190" width="120" height="20" as="geometry" />
        </mxCell>
        <mxCell id="9ni6siHGz9n0_JyOoFfe-100" value="" style="endArrow=none;html=1;rounded=0;" edge="1" parent="1" source="9ni6siHGz9n0_JyOoFfe-108" target="9ni6siHGz9n0_JyOoFfe-101">
          <mxGeometry width="50" height="50" relative="1" as="geometry">
            <mxPoint x="401" y="280" as="sourcePoint" />
            <mxPoint x="761" y="280" as="targetPoint" />
          </mxGeometry>
        </mxCell>
        <mxCell id="9ni6siHGz9n0_JyOoFfe-101" value="" style="rounded=0;whiteSpace=wrap;html=1;" vertex="1" parent="1">
          <mxGeometry x="601" y="270" width="80" height="20" as="geometry" />
        </mxCell>
        <mxCell id="9ni6siHGz9n0_JyOoFfe-102" value="Entra comensal 1" style="text;html=1;align=center;verticalAlign=middle;whiteSpace=wrap;rounded=0;" vertex="1" parent="1">
          <mxGeometry x="460" y="130" width="80" height="30" as="geometry" />
        </mxCell>
        <mxCell id="9ni6siHGz9n0_JyOoFfe-103" value="Comensal 2 intenta entrar" style="text;html=1;align=center;verticalAlign=middle;whiteSpace=wrap;rounded=0;" vertex="1" parent="1">
          <mxGeometry x="521" y="230" width="80" height="30" as="geometry" />
        </mxCell>
        <mxCell id="9ni6siHGz9n0_JyOoFfe-104" value="Entra comensal 2" style="text;html=1;align=center;verticalAlign=middle;whiteSpace=wrap;rounded=0;" vertex="1" parent="1">
          <mxGeometry x="601" y="215" width="80" height="30" as="geometry" />
        </mxCell>
        <mxCell id="9ni6siHGz9n0_JyOoFfe-105" value="Sale comensal 1" style="text;html=1;align=center;verticalAlign=middle;whiteSpace=wrap;rounded=0;" vertex="1" parent="1">
          <mxGeometry x="611" y="130" width="80" height="60" as="geometry" />
        </mxCell>
        <mxCell id="9ni6siHGz9n0_JyOoFfe-106" value="Sale comensal 2" style="text;html=1;align=center;verticalAlign=middle;whiteSpace=wrap;rounded=0;" vertex="1" parent="1">
          <mxGeometry x="691" y="215" width="80" height="60" as="geometry" />
        </mxCell>
        <mxCell id="9ni6siHGz9n0_JyOoFfe-107" value="2 Se bloquea" style="text;html=1;align=center;verticalAlign=middle;whiteSpace=wrap;rounded=0;" vertex="1" parent="1">
          <mxGeometry x="521" y="290" width="80" height="30" as="geometry" />
        </mxCell>
        <mxCell id="9ni6siHGz9n0_JyOoFfe-108" value="" style="shape=curlyBracket;whiteSpace=wrap;html=1;rounded=1;labelPosition=left;verticalLabelPosition=middle;align=right;verticalAlign=middle;size=0.5;rotation=-90;" vertex="1" parent="1">
          <mxGeometry x="551" y="250" width="20" height="80" as="geometry" />
        </mxCell>
        <mxCell id="9ni6siHGz9n0_JyOoFfe-109" value="" style="endArrow=none;dashed=1;html=1;dashPattern=1 3;strokeWidth=2;rounded=0;exitX=0.948;exitY=0.021;exitDx=0;exitDy=0;exitPerimeter=0;entryX=0;entryY=0.5;entryDx=0;entryDy=0;" edge="1" parent="1" source="9ni6siHGz9n0_JyOoFfe-108" target="9ni6siHGz9n0_JyOoFfe-101">
          <mxGeometry width="50" height="50" relative="1" as="geometry">
            <mxPoint x="581" y="280" as="sourcePoint" />
            <mxPoint x="631" y="230" as="targetPoint" />
          </mxGeometry>
        </mxCell>
        <mxCell id="9ni6siHGz9n0_JyOoFfe-110" value="" style="endArrow=classic;html=1;rounded=0;entryX=1;entryY=0.5;entryDx=0;entryDy=0;" edge="1" parent="1" target="9ni6siHGz9n0_JyOoFfe-101">
          <mxGeometry width="50" height="50" relative="1" as="geometry">
            <mxPoint x="701" y="260" as="sourcePoint" />
            <mxPoint x="671" y="290" as="targetPoint" />
          </mxGeometry>
        </mxCell>
        <mxCell id="9ni6siHGz9n0_JyOoFfe-111" value="" style="endArrow=classic;html=1;rounded=0;entryX=1;entryY=0.5;entryDx=0;entryDy=0;" edge="1" parent="1">
          <mxGeometry width="50" height="50" relative="1" as="geometry">
            <mxPoint x="621" y="250" as="sourcePoint" />
            <mxPoint x="601" y="270" as="targetPoint" />
          </mxGeometry>
        </mxCell>
        <mxCell id="9ni6siHGz9n0_JyOoFfe-112" value="" style="endArrow=classic;html=1;rounded=0;entryX=1;entryY=0.5;entryDx=0;entryDy=0;" edge="1" parent="1">
          <mxGeometry width="50" height="50" relative="1" as="geometry">
            <mxPoint x="541" y="260" as="sourcePoint" />
            <mxPoint x="521" y="280" as="targetPoint" />
          </mxGeometry>
        </mxCell>
        <mxCell id="9ni6siHGz9n0_JyOoFfe-113" value="" style="endArrow=classic;html=1;rounded=0;entryX=1;entryY=0.5;entryDx=0;entryDy=0;" edge="1" parent="1">
          <mxGeometry width="50" height="50" relative="1" as="geometry">
            <mxPoint x="621" y="180" as="sourcePoint" />
            <mxPoint x="601" y="200" as="targetPoint" />
          </mxGeometry>
        </mxCell>
        <mxCell id="9ni6siHGz9n0_JyOoFfe-114" value="" style="endArrow=classic;html=1;rounded=0;" edge="1" parent="1">
          <mxGeometry width="50" height="50" relative="1" as="geometry">
            <mxPoint x="551" y="140" as="sourcePoint" />
            <mxPoint x="551" y="180" as="targetPoint" />
            <Array as="points">
              <mxPoint x="551" y="170" />
            </Array>
          </mxGeometry>
        </mxCell>
        <mxCell id="9ni6siHGz9n0_JyOoFfe-115" value="" style="endArrow=classic;html=1;rounded=0;entryX=1;entryY=0.5;entryDx=0;entryDy=0;" edge="1" parent="1">
          <mxGeometry width="50" height="50" relative="1" as="geometry">
            <mxPoint x="501" y="170" as="sourcePoint" />
            <mxPoint x="481" y="190" as="targetPoint" />
          </mxGeometry>
        </mxCell>
        <mxCell id="9ni6siHGz9n0_JyOoFfe-117" value="T5" style="text;html=1;align=center;verticalAlign=middle;whiteSpace=wrap;rounded=0;" vertex="1" parent="1">
          <mxGeometry x="441" y="320" width="80" height="30" as="geometry" />
        </mxCell>
        <mxCell id="9ni6siHGz9n0_JyOoFfe-118" value="T6" style="text;html=1;align=center;verticalAlign=middle;whiteSpace=wrap;rounded=0;" vertex="1" parent="1">
          <mxGeometry x="481" y="320" width="80" height="30" as="geometry" />
        </mxCell>
        <mxCell id="9ni6siHGz9n0_JyOoFfe-119" value="T7" style="text;html=1;align=center;verticalAlign=middle;whiteSpace=wrap;rounded=0;" vertex="1" parent="1">
          <mxGeometry x="561" y="320" width="80" height="30" as="geometry" />
        </mxCell>
        <mxCell id="9ni6siHGz9n0_JyOoFfe-120" value="T8" style="text;html=1;align=center;verticalAlign=middle;whiteSpace=wrap;rounded=0;" vertex="1" parent="1">
          <mxGeometry x="641" y="320" width="80" height="30" as="geometry" />
        </mxCell>
        <mxCell id="9ni6siHGz9n0_JyOoFfe-122" value="" style="endArrow=classic;html=1;rounded=0;exitX=0;exitY=1;exitDx=0;exitDy=0;" edge="1" parent="1" source="9ni6siHGz9n0_JyOoFfe-120">
          <mxGeometry width="50" height="50" relative="1" as="geometry">
            <mxPoint x="651" y="290" as="sourcePoint" />
            <mxPoint x="641" y="300" as="targetPoint" />
          </mxGeometry>
        </mxCell>
        <mxCell id="9ni6siHGz9n0_JyOoFfe-123" value="Comensal 2 se come una hamburgue&lt;span style=&quot;color: rgba(0, 0, 0, 0); font-family: monospace; font-size: 0px; text-align: start; text-wrap: nowrap;&quot;&gt;%3CmxGraphModel%3E%3Croot%3E%3CmxCell%20id%3D%220%22%2F%3E%3CmxCell%20id%3D%221%22%20parent%3D%220%22%2F%3E%3CmxCell%20id%3D%222%22%20value%3D%22T2%22%20style%3D%22text%3Bhtml%3D1%3Balign%3Dcenter%3BverticalAlign%3Dmiddle%3BwhiteSpace%3Dwrap%3Brounded%3D0%3B%22%20vertex%3D%221%22%20parent%3D%221%22%3E%3CmxGeometry%20x%3D%22160%22%20y%3D%22320%22%20width%3D%2280%22%20height%3D%2230%22%20as%3D%22geometry%22%2F%3E%3C%2FmxCell%3E%3C%2Froot%3E%3C%2FmxGraphModel%3E&lt;/span&gt;sa (1/8)" style="text;html=1;align=center;verticalAlign=middle;whiteSpace=wrap;rounded=0;" vertex="1" parent="1">
          <mxGeometry x="280" y="370" width="80" height="30" as="geometry" />
        </mxCell>
        <mxCell id="9ni6siHGz9n0_JyOoFfe-124" value="Comensal 2 se come una hamburgue&lt;span style=&quot;color: rgba(0, 0, 0, 0); font-family: monospace; font-size: 0px; text-align: start; text-wrap: nowrap;&quot;&gt;%3CmxGraphModel%3E%3Croot%3E%3CmxCell%20id%3D%220%22%2F%3E%3CmxCell%20id%3D%221%22%20parent%3D%220%22%2F%3E%3CmxCell%20id%3D%222%22%20value%3D%22T2%22%20style%3D%22text%3Bhtml%3D1%3Balign%3Dcenter%3BverticalAlign%3Dmiddle%3BwhiteSpace%3Dwrap%3Brounded%3D0%3B%22%20vertex%3D%221%22%20parent%3D%221%22%3E%3CmxGeometry%20x%3D%22160%22%20y%3D%22320%22%20width%3D%2280%22%20height%3D%2230%22%20as%3D%22geometry%22%2F%3E%3C%2FmxCell%3E%3C%2Froot%3E%3C%2FmxGraphModel%3E&lt;/span&gt;sa (2/8)" style="text;html=1;align=center;verticalAlign=middle;whiteSpace=wrap;rounded=0;" vertex="1" parent="1">
          <mxGeometry x="601" y="365" width="80" height="40" as="geometry" />
        </mxCell>
        <mxCell id="9ni6siHGz9n0_JyOoFfe-125" value="Comensal 1 se come una hamburgue&lt;span style=&quot;color: rgba(0, 0, 0, 0); font-family: monospace; font-size: 0px; text-align: start; text-wrap: nowrap;&quot;&gt;%3CmxGraphModel%3E%3Croot%3E%3CmxCell%20id%3D%220%22%2F%3E%3CmxCell%20id%3D%221%22%20parent%3D%220%22%2F%3E%3CmxCell%20id%3D%222%22%20value%3D%22T2%22%20style%3D%22text%3Bhtml%3D1%3Balign%3Dcenter%3BverticalAlign%3Dmiddle%3BwhiteSpace%3Dwrap%3Brounded%3D0%3B%22%20vertex%3D%221%22%20parent%3D%221%22%3E%3CmxGeometry%20x%3D%22160%22%20y%3D%22320%22%20width%3D%2280%22%20height%3D%2230%22%20as%3D%22geometry%22%2F%3E%3C%2FmxCell%3E%3C%2Froot%3E%3C%2FmxGraphModel%3E&lt;/span&gt;sa (2/8)" style="text;html=1;align=center;verticalAlign=middle;whiteSpace=wrap;rounded=0;" vertex="1" parent="1">
          <mxGeometry x="510" y="95" width="80" height="30" as="geometry" />
        </mxCell>
        <mxCell id="9ni6siHGz9n0_JyOoFfe-126" value="" style="endArrow=classic;html=1;rounded=0;" edge="1" parent="1">
          <mxGeometry width="50" height="50" relative="1" as="geometry">
            <mxPoint x="140" y="350" as="sourcePoint" />
            <mxPoint x="260" y="350" as="targetPoint" />
            <Array as="points" />
          </mxGeometry>
        </mxCell>
        <mxCell id="9ni6siHGz9n0_JyOoFfe-127" value="TIEMPO" style="text;html=1;align=center;verticalAlign=middle;whiteSpace=wrap;rounded=0;" vertex="1" parent="1">
          <mxGeometry x="160" y="350" width="80" height="30" as="geometry" />
        </mxCell>
        <mxCell id="9ni6siHGz9n0_JyOoFfe-129" value="AsÃ­ sucesivamente hasta que se terminen las hamburguesas." style="text;html=1;align=center;verticalAlign=middle;whiteSpace=wrap;rounded=0;" vertex="1" parent="1">
          <mxGeometry x="790" y="220" width="80" height="30" as="geometry" />
        </mxCell>
        <mxCell id="9ni6siHGz9n0_JyOoFfe-130" value="" style="endArrow=none;html=1;rounded=0;" edge="1" parent="1">
          <mxGeometry width="50" height="50" relative="1" as="geometry">
            <mxPoint x="601" y="199.66" as="sourcePoint" />
            <mxPoint x="780" y="200" as="targetPoint" />
          </mxGeometry>
        </mxCell>
      </root>
    </mxGraphModel>
  </diagram>
</mxfile>
